# Alias Wavefront OBJ File Exported from SketchUp
# with OBJexporter (c) 2010/2011 TIG
# Units = meters

mtllib rope.mtl

g rope_c_Component_2-969696
usemtl 969696
v 0.170696 -0.503744 -0.352973
v -0.150138 -0.503744 -0.352973
v 0.010279 -0.503744 -0.352973
v 0.170696 0.505499 -0.352973
v -0.150138 0.505499 -0.352973
v 0.010279 0.505499 -0.352973
v 0.010279 0.505499 -0.352973
v 0.010279 -0.503744 -0.192557
v 0.010279 0.505499 -0.192557
v 0.010279 -0.503744 -0.352973
v 0.010279 0.505499 -0.513390
v 0.010279 -0.503744 -0.513390
vn 0.000000 0.000000 1.000000
vn 0.000000 0.000000 1.000000
vn 0.000000 0.000000 1.000000
vn 0.000000 0.000000 1.000000
vn 0.000000 0.000000 1.000000
vn 0.000000 0.000000 1.000000
vn -1.000000 0.000000 -0.000000
vn -1.000000 0.000000 -0.000000
vn -1.000000 0.000000 -0.000000
vn -1.000000 0.000000 -0.000000
vn -1.000000 0.000000 -0.000000
vn -1.000000 0.000000 -0.000000
vt 0.815104 -1.153629
vt 0.203125 -1.153629
vt 0.509115 -1.153629
vt 0.815104 0.894298
vt 0.203125 0.894298
vt 0.509115 0.894298
vt 0.501302 0.894298
vt 0.807292 -1.153629
vt 0.807292 0.894298
vt 0.501302 -1.153629
vt 0.195312 0.894298
vt 0.195312 -1.153629
f 1/1/1 2/2/2 3/3/3
f 2/2/2 1/1/1 4/4/4
f 2/2/2 4/4/4 5/5/5
f 5/5/5 4/4/4 6/6/6
f 7/7/7 8/8/8 9/9/9
f 8/8/8 7/7/7 10/10/10
f 10/10/10 7/7/7 11/11/11
f 10/10/10 11/11/11 12/12/12

